<svg width="301" height="155" viewBox="0 0 301 155" fill="none" xmlns="http://www.w3.org/2000/svg">
<g filter="url(#filter0_d_114_100)">
<path d="M75.272 32.224C75.752 33.616 75.752 35.104 75.416 36.496C74.744 38.944 74.072 41.344 73.256 43.744C72.152 46.96 70.904 50.176 69.704 53.392C69.656 53.584 69.512 53.728 69.368 53.92C69.032 53.584 68.744 53.2 68.984 52.624C69.752 50.752 70.424 48.832 71.144 46.912C71.48 45.952 71.768 45.04 72.056 44.08L71.672 43.936C69.704 48.592 68.072 53.44 66.296 58.192L60.824 72.448H60.728L61.016 70.528C59.864 72.88 58.904 76.624 59.048 77.968C59.528 76.816 59.912 75.856 60.344 74.704L61.448 73.984C61.448 73.84 61.352 73.6 61.4 73.552C61.928 73.168 61.928 72.64 62.072 72.16C62.792 70.288 63.368 68.368 64.28 66.592C64.76 65.728 65.048 64.768 65.384 63.808C65.624 63.232 65.768 62.608 65.96 62.032C66.104 61.648 66.488 61.36 66.488 60.784C66.488 60.352 66.968 59.872 67.16 59.392C67.784 57.76 68.36 56.128 68.936 54.496C69.032 54.256 69.272 54.064 69.416 53.872C69.32 54.4 69.224 54.928 69.08 55.456L60.008 80.56L59.768 79.744H59.528C59.288 80.464 59 81.184 58.808 81.904C57.992 84.592 57.128 87.28 55.928 89.824C55.112 91.6 54.776 93.52 54.68 95.536C55.4 93.52 56.072 91.552 56.792 89.584H56.888L56.312 93.088C55.352 97.84 54.392 102.544 53.48 107.248C52.664 111.52 51.896 115.744 51.128 120.016L51.032 120.544C49.976 123.136 50.12 125.92 49.928 128.608C49.64 131.92 49.496 135.28 49.304 138.592C49.256 139.504 49.112 140.368 49.304 141.28C49.64 142.432 50.36 143.104 51.416 143.44C51.608 143.488 51.752 143.584 51.896 143.68C51.944 143.68 51.944 143.728 51.944 143.92L50.264 144.064C50.696 145.024 51.56 144.976 52.376 145.216C52.472 145.504 52.52 145.84 52.616 146.128C52.472 146.224 52.424 146.272 52.376 146.32C50.6 146.896 49.016 146.464 47.624 145.312C46.616 144.448 46.376 143.2 46.136 141.952C45.464 138.544 45.656 135.04 45.992 131.584C46.856 121.696 48.68 111.904 50.744 102.16C52.28 94.864 54.056 87.664 56.408 80.608C57.848 76.192 59.336 71.776 60.776 67.408C60.776 67.36 60.776 67.312 60.824 67.264C62.36 64.288 62.936 60.976 64.232 57.904C65.48 54.832 66.632 51.712 67.784 48.544C69.128 44.752 70.376 40.864 71.672 37.024C71.912 36.304 72.008 35.584 71.912 34.72L70.424 36.016C69.416 36.976 68.408 37.84 67.496 38.848C66.968 39.424 66.584 40.24 66.056 40.864C63.128 44.176 60.2 47.488 57.224 50.752C56.168 51.904 54.968 52.912 53.864 54.064C53.288 54.64 52.76 55.312 52.184 55.984C51.56 56.704 51.032 57.616 50.216 58.144C48.824 59.008 47.816 60.208 46.808 61.408C45.08 63.376 42.92 64.768 40.52 65.68C39.896 65.92 39.32 65.824 38.84 65.344C37.016 65.2 36.392 64.624 36.296 62.848C36.248 61.936 36.248 60.976 36.344 60.016C36.824 55.792 37.784 51.616 38.696 47.44C39.032 46.096 39.272 44.704 39.608 43.12C39.176 43.408 38.936 43.504 38.744 43.696C37.736 44.8 36.776 45.952 35.72 47.008L29.528 53.584C29 54.16 28.52 54.832 28.088 55.504C26.696 57.664 25.016 59.488 23.336 61.36C19.928 65.104 16.52 68.848 13.064 72.496C11.96 73.696 10.712 74.752 9.416 75.76C7.784 77.008 6.392 76.96 4.616 75.664C4.184 73.984 4.712 72.4 5.24 70.816C7.544 63.808 10.76 57.184 13.976 50.608C15.896 46.672 17.96 42.832 19.976 38.944C20.312 38.224 20.744 37.552 21.176 36.832C21.704 36.832 22.184 36.784 22.856 36.784L23.384 36.064C23.768 36.256 24.104 36.4 24.44 36.592C25.112 37.552 25.016 38.368 24.248 39.28C23.48 40.096 22.952 41.104 22.424 42.112C18.152 50.32 14.024 58.576 10.472 67.12C10.04 68.128 9.656 69.184 9.416 70.384C9.56 70.24 9.704 70.192 9.848 70.048C11.192 68.848 12.488 67.6 13.784 66.352C15.032 65.152 16.04 63.76 17.048 62.416C18.728 60.256 20.6 58.192 22.424 56.176C25.112 53.152 27.896 50.224 30.488 47.104C31.688 45.664 32.792 44.176 34.04 42.784C35 41.68 35.96 40.672 36.968 39.616C37.256 39.328 37.544 38.992 37.88 38.752C38.696 38.176 39.368 37.312 40.616 37.936C42.056 38.656 43.304 39.472 43.16 41.296C43.064 42.976 42.824 44.608 42.488 46.24C41.912 49.312 41.336 52.384 40.52 55.36C40.136 56.848 39.944 58.336 39.704 59.824C39.608 60.304 39.656 60.88 39.656 61.552C41.192 60.784 42.44 59.872 43.496 58.816C46.376 56.032 49.256 53.248 51.992 50.32C57.032 45.04 61.928 39.616 66.92 34.288C67.736 33.376 68.648 32.56 69.56 31.744C70.28 31.168 71.048 30.64 71.864 30.064C72.296 30.64 72.68 31.072 73.064 31.504C73.256 31.456 73.4 31.36 73.592 31.312C74.552 31.024 74.936 31.264 75.272 32.224ZM47.24 58.96C49.304 58.72 50.216 57.28 51.32 56.128L51.032 55.792C49.832 56.8 48.584 57.808 47.24 58.96ZM37.256 62.128V63.28C37.736 63.616 38.12 63.664 38.744 63.136C38.216 62.752 37.784 62.464 37.256 62.128ZM39.8 62.992C40.136 62.8 40.52 62.656 41.048 62.368C40.328 62.224 39.896 62.224 39.8 62.992ZM6.392 70.048L8.792 64.096L8.552 63.952C7.688 65.632 6.872 67.312 6.296 69.088C6.248 69.28 6.344 69.568 6.392 70.048ZM38.84 65.296C39.32 65.248 39.752 65.248 40.28 65.2C39.512 64.432 38.744 64.048 37.592 64.384C38.024 64.48 38.36 64.576 38.696 64.624L38.84 65.296ZM50.168 145.072C49.544 143.968 49.544 143.968 48.44 144.208L49.256 145.456C49.592 145.312 49.832 145.168 50.168 145.072ZM82.2005 47.392C81.7205 47.776 81.2885 47.44 80.8565 46.72C80.6165 46.72 80.3765 46.864 80.2805 46.768C80.0885 46.72 79.8965 46.432 79.9445 46.24C79.9925 45.328 80.2325 44.416 81.0005 43.792C81.7205 43.888 82.0565 44.32 82.2485 45.088C82.5365 44.56 82.8725 44.368 83.4005 44.608C83.4965 45.04 83.7365 45.472 83.5445 45.952C83.2085 46.576 82.6805 47.008 82.2005 47.392ZM77.6885 69.088C75.9125 70.096 73.9925 69.52 73.3205 67.6C72.7925 66.208 72.9365 64.768 73.0325 63.328C73.3205 60.016 74.7605 57.088 76.3445 54.208C76.6805 53.584 76.9205 52.96 77.2565 52.336C77.5925 51.616 78.0725 50.896 78.6965 50.32C78.8885 50.512 79.6085 50.704 79.8485 50.896C79.3685 51.328 78.8885 51.664 78.2645 52.192L78.7925 52.528C78.9845 52.336 79.1765 52.144 79.3205 51.952C79.5125 51.664 79.9445 52.048 80.0405 51.664C80.1845 51.376 80.4245 51.232 80.7125 51.376C81.0005 52.24 80.9525 52.48 80.3765 53.008C80.1365 53.248 79.9445 53.488 79.7525 53.824C79.4165 54.352 79.1285 54.976 78.7445 55.552L78.5525 55.024C77.8805 56.416 77.2085 57.616 76.6805 58.96C76.4885 59.392 76.5845 59.968 76.5845 60.496C76.5845 60.688 76.6325 60.928 76.5845 61.072C76.2005 61.936 76.2005 62.848 76.1045 63.76C75.9605 64.912 76.1045 66.064 76.4405 67.216C76.4405 67.36 76.5365 67.504 76.6325 67.648C77.3045 67.6 77.7365 67.36 78.0245 66.832C77.8805 66.736 77.7365 66.736 77.7365 66.736L79.1765 65.488C79.5125 65.824 78.7445 65.968 78.6965 66.448C79.2245 66.592 79.8485 66.592 80.5205 66.544C80.1845 66.928 79.9925 67.312 79.7525 67.552C79.1765 68.032 78.5525 68.416 78.0245 68.848C77.8805 68.944 77.7845 69.04 77.6885 69.088ZM89.9964 67.936C89.1324 67.984 88.3164 68.032 87.5484 67.6C87.3564 67.504 87.1164 67.456 86.9244 67.456C84.8604 67.264 84.0924 66.208 84.5244 64.192C84.5724 63.904 84.6684 63.616 84.6684 63.328C84.5724 61.552 85.2444 60.064 86.2524 58.624C86.4444 58.336 86.5404 58.048 86.7324 57.76C87.0204 57.52 87.4044 57.28 87.3084 56.8C87.3564 56.752 87.3564 56.704 87.4524 56.656C88.0284 56.416 88.4604 55.984 88.6044 55.312L89.7084 54.304C89.8524 54.256 90.0444 54.208 90.1884 54.112C91.1004 53.344 92.0604 52.624 92.9724 51.856C93.4044 51.52 93.7404 51.184 94.1244 50.848C94.2204 50.752 94.3644 50.704 94.3644 50.656C94.2684 49.696 95.0364 49.648 95.5644 49.36C97.1484 48.448 98.8284 47.92 100.604 47.536C101.084 47.44 101.612 47.488 102.14 47.44C102.524 47.44 102.86 47.536 103.1 47.824C103.484 48.304 104.06 48.448 104.636 48.544C106.412 48.832 107.564 50.752 107.084 52.432C106.94 52.864 106.844 53.344 106.268 53.488C105.884 53.584 105.692 53.488 105.164 52.816C105.02 52.912 104.924 52.96 104.684 53.152C104.54 52.912 104.348 52.72 104.252 52.48C104.156 52.336 104.252 52.144 104.204 51.952C104.156 51.04 103.82 50.704 102.908 50.752C101.66 50.8 100.46 51.088 99.3084 51.568C98.4444 51.904 97.5804 52.24 96.8124 52.72C94.3644 54.208 91.9164 55.744 89.9964 57.952C88.7964 59.344 87.8364 60.88 87.1644 62.608C86.9724 63.088 86.9244 63.664 86.7804 64.288C87.3084 64.384 87.7404 64.528 88.1244 64.48C92.3484 64.24 96.1884 62.896 99.5484 60.256C100.412 59.584 101.036 58.72 101.852 57.856C102.14 58.24 102.86 58.096 103.196 58.672C103.628 58.624 103.676 59.008 103.772 59.296C103.82 59.632 103.868 59.968 103.772 60.256C103.484 61.216 102.812 61.936 102.14 62.656C100.604 64.24 98.7324 65.296 96.7164 66.16C94.6044 67.072 92.3484 67.744 89.9964 67.936ZM86.1084 66.544C85.6284 65.728 85.3404 65.152 84.9564 64.528C84.7644 65.68 84.9084 65.92 86.1084 66.544ZM118.807 41.392C117.799 43.984 116.839 46.624 115.831 49.216C115.783 49.456 115.735 49.648 115.591 50.128C117.463 48.88 118.663 47.056 120.775 46.72C120.583 46.96 120.343 47.104 119.911 47.536L122.743 47.056C123.415 46.96 123.751 47.056 124.183 47.632C124.951 48.784 125.335 50.08 125.095 51.472C124.903 52.864 124.615 54.208 124.279 55.6C123.223 59.392 122.215 63.232 121.159 67.024C120.679 68.752 120.103 70.48 119.575 72.208C119.383 72.736 119.191 73.216 118.903 73.888C118.711 73.456 118.471 73.216 118.183 72.784C117.991 73.264 117.799 73.6 117.559 73.936C117.511 73.984 117.415 73.936 117.367 73.936C117.367 73.744 117.319 73.552 117.367 73.408C117.607 72.88 117.799 72.352 118.183 71.872C118.951 70.768 119.191 69.424 119.623 68.176C120.151 66.64 120.727 65.104 121.207 63.52C121.447 62.608 122.023 61.744 121.975 60.688C121.927 59.968 122.407 59.344 122.599 58.672C123.223 56.752 123.895 54.784 123.895 52.768C123.943 51.808 123.847 50.8 123.799 49.84C123.271 50.224 123.415 50.752 123.319 51.28C122.839 54.016 122.023 56.656 121.207 59.296C120.103 62.8 119.047 66.304 117.943 69.808C117.847 70.288 117.607 70.72 117.367 71.44C117.367 70.816 117.367 70.432 117.415 69.76C116.935 70.768 116.503 71.632 116.023 72.688C115.975 72.256 115.927 72.064 115.927 71.872C116.503 70.288 117.031 68.656 117.511 67.024L118.375 64.048C119.047 61.696 119.815 59.344 120.439 57.04C120.919 55.312 121.159 53.488 121.495 51.808C121.639 51.04 121.639 50.272 121.255 49.6C120.439 49.648 119.911 50.224 119.383 50.704C117.655 52.432 116.311 54.352 115.015 56.416C113.335 59.104 111.751 61.888 110.071 64.576L109.303 65.776C109.207 65.728 109.111 65.632 108.919 65.536C108.631 66.112 108.343 66.688 108.055 67.216C107.143 66.88 106.087 66.88 105.751 65.44C106.711 62.896 107.767 60.208 108.823 57.568C110.455 53.584 112.183 49.6 113.719 45.568C116.071 39.664 118.279 33.808 120.631 27.904C121.639 25.264 122.791 22.672 123.847 20.08C123.991 19.648 124.279 19.36 124.663 19.072C124.423 19.744 124.183 20.32 123.991 20.992L124.423 21.712C124.759 20.8 125.095 20.032 125.479 19.12C125.863 19.648 125.959 20.032 125.623 20.512C125.239 21.088 124.855 21.712 124.471 22.384C124.327 22.624 124.231 22.912 124.039 23.488C124.999 22.72 124.903 21.376 126.103 21.232C126.631 21.472 126.583 21.856 126.391 22.336C125.959 23.536 125.575 24.784 125.095 26.032C123.991 28.864 122.839 31.744 121.687 34.528C121.399 35.344 120.919 36.064 120.535 36.88C119.959 38.368 119.431 39.856 118.807 41.392ZM123.607 48.736C123.271 49.168 123.559 49.504 123.799 49.744C124.183 49.312 124.135 49.072 123.607 48.736ZM135.78 67.168C134.58 67.168 133.524 66.64 132.42 66.256C132.516 66.112 132.612 66.016 132.708 65.824C131.748 65.152 131.22 64.048 130.02 63.664C129.732 63.568 129.54 63.184 129.3 62.944C128.964 62.56 128.628 62.128 128.34 61.744C128.196 61.552 128.148 61.312 128.1 61.12C128.052 60.688 128.052 60.304 128.004 59.872C127.092 59.824 126.036 60.592 125.22 59.44C125.268 59.104 125.268 58.672 125.316 58.192C125.652 57.952 125.988 57.712 126.324 57.424L126.276 57.472C127.284 57.52 128.34 57.568 129.252 56.992C129.54 56.848 129.876 56.704 130.068 56.464C130.98 55.456 132.036 54.592 133.188 53.872C134.196 53.152 135.156 52.384 135.876 51.376C136.164 50.944 136.5 50.608 136.884 50.32C137.7 49.696 138.516 49.12 139.332 48.592C140.34 47.92 141.396 47.344 142.452 46.768C143.124 46.384 143.796 46.384 144.468 46.768C144.9 47.008 145.332 47.2 145.716 47.392C145.524 47.536 145.044 47.104 145.092 47.92L145.716 47.392C147.108 48.112 147.396 49.024 146.772 50.416C146.388 51.28 145.812 51.952 145.14 52.576C143.268 54.304 141.108 55.648 138.9 56.944C136.74 58.192 134.388 58.96 132.18 59.92C131.94 60.016 131.652 60.112 131.46 60.208C131.508 62.752 132.948 63.904 136.596 64.192C136.452 64.048 136.404 63.904 136.26 63.76C137.268 63.568 138.228 63.472 139.14 63.184C140.052 62.944 140.964 62.512 141.972 62.176C142.356 62.416 142.836 62.752 143.316 63.136C144.228 63.856 144.228 65.056 143.268 65.584C141.492 66.64 139.572 67.168 137.508 67.168H135.78ZM134.628 55.696C136.452 55.024 138.564 53.68 139.428 52.768L139.284 52.192C137.508 53.2 135.972 54.352 134.628 55.696ZM130.356 61.312C130.404 60.928 130.452 60.688 130.5 60.448C130.068 60.64 130.212 60.928 130.356 61.312ZM144.674 71.296C144.53 70.912 144.482 70.72 144.338 70.432C144.146 70.672 144.002 70.864 143.762 71.248C143.618 70.864 143.426 70.624 143.474 70.432C143.666 69.952 143.906 69.52 144.146 69.04C143.906 68.896 143.714 68.8 143.426 68.704C143.906 68.08 144.338 67.504 144.722 66.88C145.922 64.912 147.026 62.896 148.226 60.88C149.042 59.536 149.954 58.192 150.818 56.848C150.914 56.704 151.01 56.56 151.058 56.368C151.538 55.216 151.97 54.016 152.498 52.864C154.082 49.072 155.714 45.232 157.346 41.44C158.066 39.664 158.834 37.936 159.554 36.16C160.082 34.864 160.514 33.568 160.898 32.272C161.906 28.912 163.298 25.696 163.97 22.24C164.114 21.664 164.21 21.04 164.306 20.464C164.354 20.224 164.402 19.984 164.306 19.84C163.394 18.304 164.306 17.152 164.978 15.856C165.458 16.192 165.842 16.384 166.178 16.624C167.186 17.248 167.714 18.16 167.81 19.36C167.906 21.28 167.522 23.2 166.898 24.976C165.026 30.4 163.106 35.776 161.138 41.152C159.794 44.752 158.354 48.304 156.866 51.808C155.33 55.36 153.554 58.768 151.586 62.08C150.098 64.576 148.706 67.12 147.218 69.664C147.026 70 146.786 70.288 146.45 70.576C146.642 69.568 147.41 68.896 147.89 68.032C148.322 67.12 148.946 66.256 149.426 65.344C149.906 64.528 150.29 63.616 150.866 62.56C150.482 62.8 150.338 62.896 149.954 63.088C150.194 62.416 150.338 61.936 150.578 61.456L154.514 53.776C154.706 53.488 154.802 53.2 154.994 52.864C154.37 52.864 154.322 53.392 154.13 53.68C152.834 56.224 151.586 58.768 150.194 61.312C148.418 64.624 146.594 67.888 144.674 71.296ZM161.09 40.192C161.138 40.144 161.138 40.048 161.186 40L160.994 39.952C160.946 40 160.946 40.096 160.898 40.144C160.946 40.192 161.042 40.24 161.09 40.192ZM268.057 71.152C268.969 74.224 268.057 76.384 265.609 77.056C264.889 76.672 264.121 76.288 263.257 75.856C264.025 75.184 264.793 74.656 264.745 73.552C264.457 73.648 264.217 73.744 263.785 73.936C264.217 73.36 264.505 72.928 264.889 72.4C264.505 72.16 264.121 71.776 263.689 71.68C262.489 71.392 261.241 71.056 259.993 71.056C253.129 71.008 246.313 71.68 239.545 72.64C237.721 72.928 235.897 73.12 234.025 73.312L234.937 72.88C233.977 73.168 234.985 72.256 234.505 72.16C233.881 72.304 233.257 72.4 232.537 72.544L234.073 73.264L228.841 74.416L226.057 74.848C224.809 75.088 223.705 74.704 222.313 74.416C221.785 74.608 221.017 74.8 220.249 75.04C220.297 75.136 220.297 75.232 220.297 75.328C220.633 75.28 220.969 75.28 221.401 75.232C221.305 75.328 221.257 75.424 221.209 75.424C218.041 76.336 214.921 77.248 211.753 78.208C208.969 79.024 206.233 79.792 203.497 80.704C193.513 84.016 185.977 87.232 176.568 91.888C173.064 93.616 169.704 95.488 166.44 97.648C165.576 98.224 164.712 98.896 163.8 99.568C164.664 100.768 163.32 101.104 163.176 101.872C161.4 101.632 160.824 101.392 159.864 100.576C159.72 98.608 160.392 96.928 162.024 95.728C163.704 94.528 165.384 93.28 167.16 92.224C170.616 90.064 174.264 88.144 177.96 86.416C179.208 85.84 180.216 84.784 180.841 83.488C182.089 80.944 183.337 78.448 184.537 75.952C185.449 74.08 186.312 72.208 187.225 70.336C187.368 70.048 187.609 69.808 187.801 69.52C187.945 68.992 188.089 68.512 188.329 68.032C192.073 59.968 195.865 51.856 199.657 43.792C200.377 42.304 201.241 40.864 201.961 39.328C203.689 35.68 205.369 32.032 207.001 28.336C207.673 26.848 208.153 25.264 208.825 23.728C210.697 19.312 212.665 14.896 214.441 10.432C215.497 7.792 216.361 5.056 217.177 2.368C217.369 1.79199 217.945 1.55199 217.897 0.783998L218.521 2.32C218.905 1.6 218.665 0.591995 219.385 0.0159969C219.769 0.255997 220.057 0.495996 220.393 0.687994C220.969 1.6 220.729 2.512 220.489 3.424C219.385 7.6 217.849 11.68 216.121 15.616C211.657 25.792 207.145 35.92 202.537 46C199.033 53.728 195.433 61.36 191.785 69.04C189.577 73.744 187.273 78.4 184.921 83.2C186.025 83.44 186.745 82.48 187.753 82.528C187.849 82.672 187.945 82.816 188.089 83.104C189.385 82.432 190.633 81.808 191.881 81.136L191.833 81.184C193.945 80.56 195.961 79.744 197.833 78.592C197.977 78.544 197.977 78.208 198.073 77.92C203.305 76.048 208.681 74.416 214.153 72.976C219.577 71.536 225.097 70.528 230.665 69.568C236.185 68.656 241.753 67.744 247.369 67.456L244.873 68.32V68.464C245.785 68.32 246.649 68.272 247.513 68.08C249.433 67.744 251.353 67.312 253.273 66.976C254.233 66.832 255.193 66.88 256.105 66.928C257.641 67.024 259.129 67.168 260.665 67.408C262.633 67.648 264.553 67.984 266.281 69.28C266.281 70.384 267.433 70.528 268.057 71.152ZM189.193 67.36C188.665 68.128 188.281 68.8 187.849 69.472C187.897 69.904 187.945 70.288 188.041 70.672C188.569 69.616 189.097 68.608 189.193 67.36ZM242.329 69.664C242.425 69.664 242.473 69.472 242.569 69.28C241.849 68.56 241.513 69.52 241.033 69.472C240.457 69.376 239.977 69.616 239.497 69.952C240.457 69.952 241.417 69.808 242.329 69.664ZM261.769 70.096L263.833 70.528C263.209 70.048 262.585 69.664 261.769 70.096ZM256.873 70.576C257.785 70.576 258.745 70.528 259.657 70.48C259.657 70.336 259.609 70.24 259.609 70.096C254.665 70.288 249.673 70.336 244.777 71.344C246.025 71.296 247.225 71.296 248.473 71.104C250.345 70.864 252.265 70.624 254.185 70.624C255.049 70.624 255.961 70.624 256.873 70.576ZM227.209 72.688C229.705 72.736 232.009 72.016 234.409 71.536C231.865 71.056 229.561 72.016 227.209 72.688ZM267.337 74.032C267.481 73.408 267.577 72.736 267.721 72.112C267.241 71.824 267.049 71.152 266.425 71.536C266.569 72.16 266.617 72.688 266.809 73.216C266.905 73.552 267.145 73.792 267.337 74.032ZM187.657 72.64L186.937 74.128C187.417 73.744 187.897 73.36 187.657 72.64ZM265.465 75.184C266.377 74.224 266.377 74.032 265.801 72.928C265.705 73.648 265.609 74.32 265.465 75.184ZM267.145 75.424C267.481 75.088 267.625 74.704 267.721 74.368C267.721 74.32 267.529 74.224 267.385 74.128C267.289 74.56 267.241 74.992 267.145 75.424ZM217.081 75.76C218.329 75.904 219.481 75.664 219.913 75.136L217.081 75.76ZM192.025 83.968C193.657 83.392 195.289 82.768 196.969 82.144C195.913 81.328 195.865 81.28 195.145 81.952C194.473 82.624 193.705 83.008 192.841 83.296C192.505 83.392 192.169 83.584 191.737 83.728C191.881 83.872 191.977 83.968 192.025 83.968ZM231.183 37.6C230.415 36.88 230.319 35.968 230.223 35.008C230.031 33.232 230.703 31.792 231.663 30.352L234.111 31.744C234.351 32.656 234.879 33.328 235.791 33.664L236.703 36.352C236.751 37.312 235.695 37.792 235.119 38.56C234.975 38.752 234.591 38.848 234.351 38.8C233.247 38.56 232.095 38.416 231.183 37.6ZM245.823 32.32C247.599 32.896 248.079 34.864 249.711 35.632C249.327 36.592 248.991 37.408 248.655 38.176C248.463 38.704 248.127 38.992 247.599 39.184C246.735 39.472 244.719 38.944 244.143 38.272C243.423 37.36 243.663 36.352 244.047 35.392C244.527 34.336 245.199 33.376 245.823 32.32ZM245.823 49.36C246.207 49.36 246.591 49.312 246.927 49.264C247.455 49.84 247.359 50.368 247.119 50.896C246.351 52.576 245.631 54.256 244.863 55.984C244.623 55.792 244.527 55.696 244.287 55.552C243.423 57.424 242.559 59.2 241.743 61.072C242.463 60.304 243.183 59.488 243.903 58.672L244.623 57.952C245.199 58.336 244.959 58.768 244.767 59.152C244.143 60.352 243.471 61.504 242.847 62.704C242.223 63.952 241.503 65.152 240.927 66.4C240.447 67.456 239.583 68.032 238.911 68.992L238.143 68.272C238.047 68.32 237.903 68.368 237.711 68.512L236.991 68.032C237.135 67.648 237.231 67.312 237.423 66.928C237.615 66.496 237.951 66.064 237.807 65.488C237.759 65.2 237.951 64.816 238.095 64.48C238.671 63.184 239.295 61.888 239.919 60.592C240.111 60.208 240.255 59.824 240.255 59.296C239.967 59.536 239.679 59.776 239.439 60.016C237.471 61.744 235.551 63.52 233.535 65.248C232.143 66.4 230.655 67.456 228.879 68.032C227.967 68.368 227.103 68.56 226.287 67.792C226.143 67.648 225.807 67.648 225.567 67.6C224.703 67.456 224.319 66.928 224.319 66.064C224.271 64.096 224.991 62.368 225.951 60.784C226.431 59.968 227.055 59.296 227.583 58.576C227.919 58.096 228.351 57.616 228.207 56.944C228.159 56.8 228.303 56.608 228.351 56.464C229.359 54.784 230.463 53.2 231.903 51.808C232.239 51.856 232.431 51.76 232.191 51.376C233.007 49.696 234.399 48.592 235.791 47.488C236.511 46.96 236.991 47.152 237.855 48.16C236.751 48.688 235.407 48.448 234.447 49.648C234.543 49.696 234.783 49.888 234.927 49.84C235.839 49.552 236.751 49.216 237.855 48.832C237.999 48.88 238.335 49.072 238.719 49.216C238.719 49.6 238.767 49.936 238.815 50.176C238.479 50.224 238.191 50.224 237.807 50.272L238.431 51.568C237.951 51.472 237.567 51.472 237.039 51.376C235.407 53.248 233.439 55.024 231.951 57.136C230.463 59.248 229.455 61.648 228.063 64.192C229.551 63.76 230.463 62.944 231.711 62.272C231.327 62.224 231.135 62.176 230.895 62.176C230.943 62.08 230.943 61.984 230.943 61.936C233.199 60.064 235.359 58.096 237.663 56.32C239.007 55.216 240.447 54.256 241.695 53.008C242.703 52.048 243.807 51.184 244.863 50.272C245.199 49.984 245.535 49.648 245.871 49.312L245.823 49.36ZM242.703 55.216C242.751 55.168 242.655 55.024 242.655 54.928C242.607 54.976 242.463 55.024 242.463 55.072V55.408C242.559 55.36 242.655 55.312 242.703 55.216ZM239.919 58.432C241.503 58.096 242.127 56.944 242.415 55.456C242.175 55.552 241.983 55.6 241.791 55.744L238.671 58.768C239.151 58.768 239.487 58.48 239.919 58.432ZM228.735 60.688L227.967 61.984C228.063 62.032 228.159 62.08 228.255 62.176C228.495 61.696 228.735 61.264 228.975 60.832L228.735 60.688ZM241.311 61.84C241.359 61.84 241.407 61.888 241.455 61.888L241.551 61.408L241.311 61.84ZM230.127 65.248C231.327 64.672 232.239 63.952 233.103 63.088C232.191 63.184 230.991 64.096 230.127 65.248ZM258.071 70.624C257.927 70.528 257.831 70.384 257.735 70.24L257.255 70.576C256.391 70.336 256.439 69.664 256.439 68.992C256.487 66.928 256.007 64.912 254.951 63.136C254.231 61.888 253.319 60.784 252.455 59.584C252.071 59.056 251.639 58.576 251.207 58.096C250.007 56.656 249.959 55.12 250.871 53.488C250.919 53.44 251.015 53.344 251.015 53.296C251.303 51.472 252.743 50.656 254.135 50.032C256.199 49.12 258.407 48.448 260.519 47.68C260.615 47.632 260.759 47.68 260.999 47.68C259.991 48.736 258.647 49.072 257.639 49.936C258.791 49.552 259.991 49.168 261.143 48.736C261.335 48.688 261.431 48.544 261.623 48.496C263.543 48.112 264.359 46.624 265.031 44.992L265.559 44.416C265.511 44.368 265.463 44.368 265.463 44.32C265.319 44.368 265.175 44.464 265.031 44.512C265.319 43.84 265.559 43.12 265.895 42.496C268.247 38.128 270.599 33.76 272.999 29.392C273.239 28.96 273.527 28.624 273.863 28.096C274.151 28.528 274.391 28.816 274.631 29.2C274.871 28.96 275.111 28.672 275.351 28.384C276.119 28.624 276.743 29.104 276.695 29.968C276.647 30.592 276.407 31.264 276.119 31.792C275.207 33.376 274.103 34.912 273.239 36.496C271.751 39.184 270.407 41.968 268.967 44.704C268.775 45.088 268.631 45.52 268.391 46C269.207 46.096 269.927 46.192 270.647 46.336C272.855 46.624 274.295 48.016 275.543 49.744C275.639 49.888 275.687 50.128 275.687 50.32C275.687 50.56 275.591 50.8 275.591 51.04C275.591 51.28 275.687 51.472 275.783 51.712C275.255 52.24 274.727 52.384 274.151 51.856C273.911 51.664 273.719 51.568 273.383 51.664C273.143 51.712 272.759 51.376 272.567 51.088C272.087 50.32 271.415 50.08 270.551 50.176C269.159 50.272 267.719 50.416 266.183 50.56C265.271 52.864 264.407 55.072 263.591 57.28C262.199 61.168 260.855 65.056 260.183 69.088C260.135 69.472 259.991 69.856 259.847 70.24C259.463 71.152 258.839 71.296 258.071 70.624ZM258.407 61.696L261.575 52C258.359 52.528 254.855 54.256 253.991 55.744C255.431 57.712 256.919 59.68 258.407 61.696ZM252.071 56.656C252.215 56.176 252.407 55.648 251.879 55.12C251.255 55.744 251.735 56.176 252.071 56.656ZM295.585 65.728C293.713 65.632 291.937 65.536 290.161 65.392C286.417 65.056 282.673 65.104 279.025 64.288C278.257 64.096 277.537 63.904 276.817 63.616C275.425 62.944 274.705 61.792 274.465 60.4C275.233 59.056 276.289 58.288 277.537 57.616C279.697 56.512 281.809 55.36 284.065 54.112C283.777 54.016 283.585 53.92 283.345 53.92C281.425 54.064 279.505 54.256 277.585 54.448C276.817 54.544 276.097 54.736 275.617 55.408C275.473 55.552 275.233 55.648 274.945 55.792C274.705 55.696 274.321 55.648 274.177 55.408C273.745 54.784 273.361 54.064 273.024 53.44C273.553 52.24 274.369 51.424 275.521 51.424C276.865 51.376 278.113 51.088 279.361 50.704C279.553 50.656 279.793 50.704 280.129 50.704C280.177 50.56 280.225 50.32 280.321 50.08C281.473 49.888 282.673 49.744 283.873 49.888C284.737 49.984 285.648 49.888 286.561 49.888C286.801 49.888 287.089 49.84 287.377 49.936C287.953 50.08 288.769 50.08 289.057 50.464C289.633 51.232 290.161 52.096 290.113 53.152C290.113 53.92 289.777 54.592 289.153 55.024C288.241 55.696 287.281 56.416 286.273 56.992C284.833 57.808 283.345 58.528 281.857 59.296C281.377 59.536 280.897 59.776 280.417 60.064C280.417 60.16 280.417 60.256 280.465 60.352C285.361 60.88 290.257 61.408 295.201 61.984C295.489 63.328 296.833 64.432 295.585 65.728ZM279.121 61.024H280.417C280.033 60.832 279.601 60.304 279.121 61.024Z" fill="white"/>
</g>
<defs>
<filter id="filter0_d_114_100" x="0.184082" y="0.0159912" width="300.648" height="154.88" filterUnits="userSpaceOnUse" color-interpolation-filters="sRGB">
<feFlood flood-opacity="0" result="BackgroundImageFix"/>
<feColorMatrix in="SourceAlpha" type="matrix" values="0 0 0 0 0 0 0 0 0 0 0 0 0 0 0 0 0 0 127 0" result="hardAlpha"/>
<feOffset dy="4"/>
<feGaussianBlur stdDeviation="2"/>
<feComposite in2="hardAlpha" operator="out"/>
<feColorMatrix type="matrix" values="0 0 0 0 0 0 0 0 0 0 0 0 0 0 0 0 0 0 0.25 0"/>
<feBlend mode="normal" in2="BackgroundImageFix" result="effect1_dropShadow_114_100"/>
<feBlend mode="normal" in="SourceGraphic" in2="effect1_dropShadow_114_100" result="shape"/>
</filter>
</defs>
</svg>
